<svg id="10015.io" viewBox="0 0 1200 630" xmlns="http://www.w3.org/2000/svg"><defs><pattern id="svg-pattern" x="0" y="0" width="35" height="35" patternUnits="userSpaceOnUse" patternTransform="translate(25, 25) rotate(0) skewX(0)"><svg width="5" height="5" viewBox="0 0 100 100"><g fill="#d4d4d4" opacity="0.10"><path d="M50 100C77.6142 100 100 77.6142 100 50C100 22.3858 77.6142 0 50 0C22.3858 0 0 22.3858 0 50C0 77.6142 22.3858 100 50 100ZM50 69.7368C60.9004 69.7368 69.7368 60.9004 69.7368 50C69.7368 39.0996 60.9004 30.2632 50 30.2632C39.0996 30.2632 30.2632 39.0996 30.2632 50C30.2632 60.9004 39.0996 69.7368 50 69.7368Z" fill-rule="evenodd" clip-rule="evenodd"></path></g></svg></pattern></defs><rect x="0" y="0" width="100%" height="100%" fill="rgba(125, 125, 171, 0)"></rect><rect x="0" y="0" width="100%" height="100%" fill="url(#svg-pattern)"></rect></svg>