<?xml version="1.0" standalone="no"?>
<!DOCTYPE svg PUBLIC "-//W3C//DTD SVG 20010904//EN"
 "http://www.w3.org/TR/2001/REC-SVG-20010904/DTD/svg10.dtd">
<svg version="1.0" xmlns="http://www.w3.org/2000/svg"
 width="1024.000000pt" height="1024.000000pt" viewBox="0 0 1024.000000 1024.000000"
 preserveAspectRatio="xMidYMid meet">
<metadata>
Created by potrace 1.14, written by Peter Selinger 2001-2017
</metadata>
<g transform="translate(0.000000,1024.000000) scale(0.100000,-0.100000)"
fill="#000000" stroke="none">
<path d="M3790 7549 c-25 -9 -79 -86 -107 -150 -6 -15 -31 -58 -56 -95 -24
-38 -66 -105 -92 -149 -26 -44 -57 -96 -70 -115 -12 -19 -48 -78 -80 -130 -32
-52 -80 -130 -107 -172 -26 -42 -48 -79 -48 -81 0 -7 -68 -118 -83 -136 -8 -9
-25 -36 -39 -61 -14 -25 -56 -94 -93 -155 -38 -60 -85 -136 -104 -168 -20 -32
-44 -70 -53 -85 -10 -15 -27 -45 -39 -67 -12 -22 -38 -65 -59 -95 -20 -30 -58
-91 -84 -135 -26 -44 -63 -102 -82 -130 -20 -27 -46 -71 -59 -96 -13 -26 -39
-69 -57 -95 -18 -26 -46 -72 -63 -101 -16 -29 -49 -85 -73 -123 l-43 -71 25
-42 c14 -23 45 -72 68 -109 24 -37 70 -110 103 -163 33 -53 82 -131 110 -173
27 -42 54 -86 61 -97 20 -37 107 -179 149 -245 23 -36 54 -87 70 -115 15 -27
59 -97 97 -154 37 -57 68 -108 68 -113 0 -5 29 -52 64 -106 35 -53 90 -140
122 -192 32 -52 68 -108 80 -125 11 -16 24 -37 27 -45 3 -8 33 -58 66 -110 33
-52 76 -124 97 -160 20 -36 56 -92 79 -125 24 -33 55 -82 69 -110 50 -94 67
-120 101 -153 l35 -32 1475 0 1476 0 24 24 c13 13 28 41 34 62 15 53 15 945 0
997 -5 21 -23 52 -39 70 l-28 32 -1211 3 -1210 2 -54 83 c-29 45 -68 109 -87
142 -29 53 -168 289 -396 675 -41 69 -74 128 -74 133 0 4 603 7 1340 7 1119 0
1346 2 1373 14 48 20 70 72 65 149 -4 54 -8 63 -41 93 l-37 34 -1355 0 c-745
0 -1355 3 -1355 6 0 4 24 43 54 88 29 44 72 113 95 151 23 39 69 113 102 165
33 52 64 105 69 118 5 12 35 60 65 106 30 46 55 87 55 91 0 3 16 31 35 61 19
30 35 57 35 59 0 3 15 27 33 53 19 26 36 52 38 57 2 6 15 27 28 48 l23 37
1210 0 1210 0 28 30 c21 22 30 45 35 83 3 29 5 273 3 542 l-3 490 -23 32 c-14
20 -37 36 -60 43 -48 13 -2896 12 -2932 -1z"/>
</g>
</svg>
